<svg width="150" height="80" viewBox="0 0 150 80" fill="none" xmlns="http://www.w3.org/2000/svg">
<path d="M17.1399 0C17.8718 0.654128 18.3617 1.40857 18.8848 2.23615C19.2425 2.77116 19.6332 3.26437 20.0343 3.76594C20.3113 4.14002 20.5863 4.51411 20.8612 4.89028C21.7048 6.03344 22.5793 7.14734 23.4662 8.25496C24.2394 9.22257 24.9506 10.2173 25.637 11.2644C26.1187 11.8161 26.6107 12.0543 27.2723 12.3448C27.3267 12.1912 27.381 12.0376 27.4371 11.8788C27.6872 11.2957 27.9663 10.8798 28.3571 10.3845C28.4861 10.2211 28.6155 10.0585 28.7478 9.88924C29.0765 9.48589 29.4115 9.09091 29.7526 8.70011C30.2405 8.13375 30.6643 7.54232 31.084 6.92372C31.6319 6.11912 32.2169 5.39394 32.862 4.66667C33.3768 4.06479 33.8585 3.43992 34.3402 2.80878C34.4262 2.69613 34.5122 2.58307 34.6007 2.46813C35.1527 1.73877 35.6654 0.992686 36.1616 0.231975C36.3662 0.30094 36.5709 0.369906 36.7818 0.440961C36.9563 0.950888 36.9563 0.950888 37.0919 1.60293C37.2933 2.49948 37.5199 3.3396 37.8589 4.19436C38.0237 4.62487 38.1711 5.05956 38.3137 5.49634C38.3677 5.66144 38.4217 5.82654 38.4775 5.99582C38.5591 6.2466 38.5591 6.2466 38.6425 6.50157C38.7434 6.80878 38.8442 7.1139 38.9443 7.41902C39.0998 7.89133 39.2544 8.36155 39.4095 8.83386C39.6534 9.57367 39.8974 10.3114 40.1455 11.0491C40.2203 11.2727 40.2952 11.4963 40.3729 11.7262C40.4384 11.9202 40.504 12.1149 40.5716 12.3135C40.7088 12.7712 40.7088 12.7712 40.7088 13.1891H41.9493C42.0175 12.9822 42.0857 12.7753 42.156 12.5622C42.4806 12.2403 42.4806 12.2403 42.892 11.8955C43.6839 11.2205 44.4054 10.4995 45.1248 9.74295C45.468 9.42947 45.468 9.42947 45.8815 9.42947C45.9284 9.31306 45.9754 9.19749 46.0238 9.07628C46.7163 7.84117 48.0291 6.88192 49.0422 5.92059C49.1954 5.77576 49.3482 5.63009 49.5053 5.48171C49.8795 5.12644 50.2558 4.77325 50.63 4.41797C50.8346 4.48694 51.0393 4.5559 51.2502 4.62696C50.9545 7.26019 50.2537 9.80982 49.5962 12.3595H50.8367C50.8964 12.1655 50.9562 11.9707 51.0176 11.7722C51.2491 11.1055 51.2491 11.1055 51.6626 10.4786H52.0761C52.1443 10.2717 52.2126 10.0648 52.2829 9.85162C52.686 9.4441 53.0126 9.25601 53.5233 9.01567C53.4402 9.22257 53.4402 9.22257 53.3554 9.43365C53.2241 9.76803 53.0949 10.1045 52.973 10.4431C52.7187 11.1557 52.4582 11.7868 52.0881 12.4514C51.6064 13.4002 51.4121 14.4075 51.1888 15.4399C50.43 18.8673 49.2888 22.2111 48.129 25.5131C47.9181 26.1902 47.7817 26.8589 47.6494 27.5549C47.3393 29.0491 46.9588 30.418 46.1381 31.7137C45.4 32.1567 44.6371 32.1358 43.8019 32.0021C43.5972 31.8642 43.3926 31.7262 43.1817 31.5841C42.2824 31.4646 41.8668 31.7471 41.1143 32.2111C40.4299 32.3549 40.4299 32.3549 39.8738 32.4201C39.8056 32.627 39.7374 32.8339 39.6671 33.047C39.5503 33.0459 39.4335 33.0448 39.3135 33.0437C38.7864 33.0394 38.2571 33.0366 37.7299 33.034C37.5461 33.0322 37.3619 33.0305 37.1717 33.0287C36.9958 33.028 36.8202 33.0273 36.6383 33.0266C36.4758 33.0255 36.3137 33.0244 36.1463 33.0233C35.7224 33.0207 35.7224 33.0207 35.3255 33.2553C34.8934 31.5917 34.79 29.9533 34.7053 28.2396H34.2918C34.2598 28.5426 34.2598 28.5426 34.2273 28.854C34.0919 29.8091 33.789 30.6806 33.4644 31.5917C33.4222 31.7361 33.3803 31.8801 33.3369 32.0285C33.206 32.4277 33.206 32.4277 32.8448 33.0546C32.0819 33.2507 32.0819 33.2507 31.3976 33.2636C30.9821 32.8603 30.7898 32.551 30.7298 31.9679C30.7215 30.6617 30.7215 30.6617 30.9841 30.1288C30.8477 30.0599 30.7112 29.9909 30.5707 29.9198C30.4342 30.2647 30.2978 30.6095 30.1572 30.9648C29.1814 30.6534 29.1814 30.6534 28.8919 30.1163C28.8024 29.9159 28.8024 29.9159 28.711 29.7109C28.5063 29.6419 28.3017 29.5729 28.0908 29.5019V29.9198C27.4375 30.2396 27.0964 30.342 26.3583 30.2584C25.4879 30.3495 25.3804 30.482 24.8201 31.1194C24.4707 31.5562 24.1937 31.9219 23.9932 32.4444C23.621 33.0505 23.1311 33.1675 22.4819 33.4183C22.2545 33.5077 22.0291 33.5972 21.7955 33.69C21.6212 33.7558 21.4461 33.8214 21.2683 33.8891C21.0016 33.6237 20.7329 33.3583 20.4662 33.0929C20.3175 32.9449 20.1685 32.7961 20.0155 32.6457C19.6123 32.2193 19.6123 32.2193 19.1988 31.5924C18.7213 31.6613 18.2437 31.7303 17.7517 31.8013C17.6962 32.0375 17.6408 32.2757 17.5838 32.5203C17.5027 32.7669 17.4217 33.0114 17.3378 33.2643C16.5873 33.5171 16.4302 33.4051 15.7231 33.0946C15.4481 32.9782 15.4481 32.9781 15.167 32.8605C14.9964 32.7871 14.8258 32.714 14.6501 32.639C13.7921 32.267 13.7921 32.267 12.9052 32.3506C12.07 32.4741 11.6234 32.0475 10.9288 31.594C10.6559 32.0768 10.383 32.5595 10.1018 33.0569C9.50018 32.8417 9.30171 32.6891 8.98953 32.1165C8.9087 31.9054 8.82807 31.6943 8.74558 31.477C8.6145 31.1364 8.6145 31.1363 8.48095 30.7894C8.17497 29.9472 7.88553 29.1071 7.6209 28.2607C7.54792 28.0287 7.47494 27.7947 7.39969 27.5543C6.79394 25.6024 6.79394 25.6024 6.79394 25.1301C6.56446 25.1387 6.3329 25.1473 6.09515 25.1562C5.34675 25.1301 5.34675 25.1301 4.93326 24.7132C4.78565 24.2701 4.65416 23.8187 4.53219 23.3673C4.46003 23.104 4.38767 22.8406 4.31304 22.569C4.18817 22.0987 4.06495 21.6285 3.94297 21.1562C3.65147 20.0319 3.29794 18.9618 2.85758 17.896C2.2787 16.4561 1.86936 14.9702 1.45587 13.4655C1.26836 12.7905 1.0734 12.1196 0.87493 11.4488C0.817249 11.2513 0.759775 11.0538 0.70044 10.8511C0.585492 10.4561 0.468889 10.0632 0.351046 9.67031C0.298534 9.48912 0.246229 9.30876 0.192269 9.12068C0.144512 8.95871 0.0967538 8.79675 0.0475493 8.62956C-0.029772 8.20114 -0.0297721 8.20114 0.176969 7.57418C0.590452 8.56686 0.590452 8.56686 0.590452 9.03708C0.726902 9.10605 0.863351 9.17501 1.00394 9.24607C1.24169 9.59717 1.4691 9.95453 1.68825 10.3161C2.58137 11.9796 2.58137 11.9796 3.90038 13.221C3.49724 11.2147 3.49724 11.2147 2.97005 9.22935C2.45319 7.40072 2.2816 5.48849 2.03971 3.60761C2.73023 4.17397 3.36906 4.70479 3.92519 5.40908C4.35935 5.94199 4.79351 6.3328 5.34757 6.74241V7.16038C5.53261 7.24084 5.53261 7.24084 5.72178 7.32277C6.22002 7.60281 6.45571 7.8724 6.80717 8.32381C7.56384 9.2329 8.42389 9.94554 9.35009 10.6854C9.91656 11.1556 10.4355 11.6383 10.9317 12.1859V12.6039H11.3451C11.4134 12.7418 11.4816 12.8797 11.5519 13.0218C12.0749 13.1589 12.0749 13.1589 12.5856 13.2308C12.6513 13.0316 12.7169 12.8316 12.7845 12.6268C13.996 8.94868 13.996 8.94868 14.151 8.48891C14.2515 8.18379 14.352 7.87867 14.4529 7.57355C14.6551 6.95913 14.8581 6.3468 15.0628 5.73447C15.3295 4.93614 15.5714 4.1399 15.7657 3.31023C16.0717 2.1399 16.5616 1.11587 17.1343 0.0500376L17.1399 0ZM4.11519 12.7482C4.04696 13.024 3.97874 13.2999 3.90845 13.5841H4.32193C4.25371 13.3083 4.18548 13.0324 4.11519 12.7482ZM30.9916 28.2132C30.9234 28.6959 30.8551 29.1787 30.7848 29.6761H31.1983C31.2665 29.1933 31.3348 28.7106 31.4051 28.2132H30.9916ZM22.3084 29.2581C22.3767 29.534 22.4449 29.8098 22.5152 30.094H22.9287V29.2581H22.3084ZM21.895 31.348C21.8267 31.6238 21.7585 31.8997 21.6882 32.1839C22.2009 32.2874 22.2009 32.2874 22.7219 32.3929V31.348H21.895Z" fill="#FFDE00"/>
<path d="M115.756 54.1274C116.165 54.4994 116.541 54.8777 116.905 55.2936C117.213 55.6447 117.213 55.6447 117.823 55.7993C117.818 55.6231 117.813 55.4461 117.808 55.2664C117.805 55.0365 117.801 54.8087 117.797 54.5726C117.792 54.3448 117.788 54.117 117.783 53.8829C117.823 53.2936 117.823 53.2936 118.237 52.8756C119.805 52.6827 121.297 52.7176 122.579 53.7115C123.819 55.0302 123.677 56.3866 123.729 58.1212C123.733 58.2633 123.737 58.4054 123.742 58.5517C123.94 65.3019 123.924 72.0522 123.612 78.8025C123.215 78.8088 122.818 78.8134 122.421 78.8171C122.2 78.8199 121.979 78.8226 121.752 78.8254C120.42 78.7761 119.498 78.117 118.526 77.2476C118.144 76.8296 117.958 76.4242 117.813 75.8766C117.569 76.0835 117.569 76.0835 117.321 76.2946C116.779 76.7126 116.779 76.7126 116.366 76.7126C116.264 77.024 116.264 77.024 116.159 77.3395C113.906 79.3583 110.805 79.7638 107.889 79.6384C104.023 79.3646 101.15 77.6948 98.5861 74.8317C98.1726 74.2047 98.1726 74.2047 98.1726 73.5778H97.7592C97.6252 73.2768 97.4925 72.978 97.3581 72.677C97.2837 72.5096 97.2094 72.3427 97.1327 72.1692C96.3161 70.2486 96.2417 68.2612 96.2458 66.1922C96.2425 65.956 96.2392 65.7178 96.2357 65.4733C96.234 62.4848 96.8766 59.4127 98.7993 57.0511H99.2128C99.2632 56.894 99.3135 56.7376 99.3654 56.5746C99.9939 55.2058 101.66 54.3803 102.942 53.7115C103.064 53.6386 103.186 53.5654 103.312 53.49C106.723 51.5485 112.595 51.8996 115.758 54.1295L115.756 54.1274ZM104.219 60.5642C102.75 62.3907 102.241 64.5767 102.35 66.9174C102.605 68.8129 103.328 70.4702 104.583 71.8913C106.961 73.63 109.338 74.1274 112.233 73.676C114.104 73.233 115.479 72.2403 116.574 70.6457C117.796 68.4723 117.842 65.6927 117.358 63.2894C116.686 60.9278 115.336 59.5276 113.264 58.3155C110.101 56.9341 106.463 58.1383 104.209 60.5726L104.219 60.5642Z" fill="white"/>
<path d="M52.9062 52.8736C53.8924 53.3208 54.3782 54.0105 54.8454 54.9843C54.9877 55.4671 54.9877 55.4671 54.9877 56.0941C56.1351 55.7618 57.0448 55.2811 57.8821 54.4096C59.6042 52.7231 62.1616 52.6897 64.4151 52.721C67.723 52.809 69.563 53.7952 71.8578 56.1484C73.1272 57.6071 73.7763 59.1578 74.256 61.0178C74.3591 61.4128 74.3591 61.4128 74.4648 61.8161C74.9589 64.1359 74.8803 66.6019 74.87 68.9634C74.8696 69.2644 74.8693 69.5632 74.8691 69.8642C74.8683 70.6437 74.8663 71.4232 74.864 72.2048C74.8619 73.0052 74.861 73.8057 74.8599 74.6082C74.8577 76.1693 74.8542 77.7221 74.8498 79.2895C74.3847 79.2958 73.9195 79.3004 73.4543 79.3042C73.1959 79.3069 72.9354 79.3096 72.6687 79.3124C71.2815 79.2677 70.4359 78.6646 69.3815 77.7827C68.2444 76.4765 68.3437 75.1076 68.3437 73.4357C68.3396 73.0407 68.3396 73.0407 68.3354 72.6395C68.3284 71.9415 68.3238 71.2456 68.3206 70.5496C68.3161 69.5716 68.3093 68.5914 68.2997 67.6029C68.2947 67.0825 68.2916 66.5622 68.2907 66.0418C68.2749 64.2487 68.1855 62.5726 67.2343 61.0052C67.1348 60.8355 67.0354 60.6667 66.9324 60.4911C66.521 59.9707 66.1179 59.7241 65.5411 59.4127C65.3705 59.3007 65.1999 59.1891 65.0242 59.0742C63.8706 58.4326 62.4813 58.4263 61.1995 58.5768C60.4656 58.8109 59.7668 59.0867 59.0701 59.3939C58.5222 59.6217 58.5222 59.6217 58.1087 59.6217C58.0618 59.7337 58.0149 59.8453 57.9665 59.9603C57.6088 60.6144 57.1354 61.139 56.6619 61.7116C55.3822 63.5319 55.5579 65.7032 55.5435 67.8349C55.5396 68.1651 55.5355 68.4953 55.5313 68.8255C55.5208 69.6907 55.5126 70.5538 55.5049 71.4169C55.4966 72.3009 55.486 73.1849 55.4757 74.0711C55.4558 75.8015 55.4383 77.5402 55.4224 79.2539C54.9572 79.2599 54.492 79.2642 54.0269 79.2678C53.7684 79.2704 53.5079 79.273 53.2413 79.2756C51.7589 79.2305 50.9464 78.5922 49.9334 77.5431C48.8128 76.1534 48.9803 74.3874 49.0031 72.6946C49.005 72.4794 49.007 72.2662 49.0091 72.0447C49.0158 71.3404 49.0242 70.6361 49.0326 69.9339C49.0377 69.4449 49.0426 68.9538 49.0474 68.4647C49.0604 67.1774 49.0747 65.8942 49.0892 64.5985C49.1038 63.284 49.1173 61.9653 49.1307 60.6486C49.1574 58.0781 49.1853 55.4867 49.2143 52.9161C50.2624 52.3853 51.7985 52.657 52.9149 52.8378L52.9062 52.8736Z" fill="white"/>
<path d="M139.324 52.8736C139.758 52.8769 140.19 52.8736 140.625 52.8696C143.105 52.8655 145.504 53.1079 147.426 54.8362C148.601 56.1235 149.132 57.0096 149.115 58.786C149.062 59.459 148.878 60.0483 148.667 60.6899C147.956 60.4684 147.284 60.2113 146.612 59.8936C144.799 59.0681 142.808 58.2782 140.802 58.182C140.581 58.1691 140.36 58.1561 140.132 58.1428C138.202 58.0757 136.742 58.2943 135.212 59.5262C134.78 60.1051 134.604 60.3831 134.604 61.1062C134.783 61.7812 134.783 61.7812 135.224 62.3601C136.194 62.8491 137.1 63.1145 138.16 63.3131C138.301 63.3396 138.441 63.366 138.586 63.3933C139.541 63.5639 140.49 63.665 141.46 63.7423C144.416 63.9869 146.856 64.8249 148.861 67.1697C150.091 69.0506 150.112 71.2658 149.895 73.4393C149.597 74.9127 149.018 76.2606 147.827 77.2011C147.528 77.4665 147.528 77.4665 147.22 77.7361C144.759 79.7193 142.03 80.0558 138.971 79.9931C138.526 79.9854 138.082 79.9846 137.637 79.9847C134.536 79.969 131.559 79.3723 129.223 77.1842C128.553 76.4862 128.005 75.8655 127.964 74.8436C128.054 73.3765 128.534 72.4611 129.429 71.3326C130.23 71.4517 130.767 71.6879 131.445 72.1289C132.264 72.643 133.076 73.0714 133.967 73.4497C134.344 73.6099 134.714 73.7903 135.08 73.9721C137.11 74.737 139.69 75.1006 141.737 74.2501C142.148 74.0014 142.502 73.7443 142.861 73.4246C142.998 73.304 143.134 73.1842 143.275 73.0588C143.657 72.1916 143.651 71.1717 143.327 70.2793C142.906 69.6106 142.337 69.5688 141.607 69.3723C140.557 69.1466 139.498 69.0359 138.423 68.9293C135.24 68.6095 131.932 67.9261 129.616 65.481C128.479 63.7485 127.983 62.1163 128.285 60.0683C128.764 58.0076 129.813 56.4946 131.469 55.2407C131.602 55.1351 131.735 55.0296 131.872 54.9209C132.316 54.597 132.763 54.342 133.251 54.0912C133.411 54.0072 133.571 53.9232 133.737 53.8363C135.589 53.0421 137.272 52.8415 139.277 52.8603L139.324 52.8736Z" fill="white"/>
<path d="M8.6635 35.3187C8.82166 35.318 8.97981 35.3173 9.14314 35.3165C9.47806 35.3155 9.81298 35.315 10.1479 35.315C10.6586 35.3146 11.1713 35.3108 11.6819 35.3068C12.0065 35.3062 12.3332 35.3058 12.6577 35.3056C12.8872 35.3033 12.8872 35.3033 13.1208 35.301C13.9065 35.3045 14.4585 35.3606 15.1345 35.7713C15.641 35.8139 15.641 35.8139 16.1806 35.7843C17.3611 35.7603 18.5168 35.8518 19.6746 35.9803V36.1893C18.8331 36.2244 17.9896 36.2579 17.1523 36.2901C16.8649 36.3012 16.5796 36.3128 16.2923 36.3248C15.8808 36.3419 15.4674 36.3576 15.0559 36.373C14.6838 36.3878 14.6838 36.3878 14.3055 36.4029C13.6853 36.3984 13.6853 36.3984 13.065 36.1897V36.6077C13.7101 36.6138 14.3572 36.6175 15.0043 36.6208C15.1881 36.6225 15.3723 36.6243 15.5625 36.6261C15.8271 36.6271 15.8271 36.6271 16.0959 36.6281C16.3398 36.6298 16.3398 36.6298 16.5879 36.6315C17.0117 36.634 17.0117 36.634 17.4087 36.3995V36.8175C17.665 36.7855 17.9235 36.7533 18.1881 36.7203C21.6407 36.3357 25.1346 36.3817 28.6079 36.3943C28.7693 36.3948 28.9304 36.3953 29.0978 36.3959C30.6008 36.4014 32.0956 36.4096 33.6048 36.4199C34.438 36.4256 35.2711 36.4291 36.1064 36.4314C36.4185 36.4327 36.7307 36.4347 37.0408 36.4377C38.9429 36.4556 40.7622 36.342 42.6435 35.9821V35.5641C43.6338 35.3154 44.6138 35.2862 45.6206 35.2632C45.879 35.2489 45.879 35.2489 46.1437 35.2341C47.0389 35.2177 47.6405 35.269 48.3351 35.8778C48.9802 36.649 49.0277 37.3637 49.0236 38.3439C49.03 38.5591 49.03 38.5591 49.0365 38.7806C49.0494 39.3094 49.0493 39.8381 49.0494 40.3689C49.0495 40.5779 49.0495 40.5779 49.0495 40.7932C49.0496 41.2676 49.0496 41.742 49.0495 42.2164C49.0495 42.3809 49.0495 42.5445 49.0495 42.7138C49.0495 43.1171 49.0494 43.5184 49.0494 43.9217C43.5294 43.9462 38.0301 43.9646 32.5101 43.9758C29.9465 43.9812 27.3829 43.9886 24.84 44.0005C22.6072 44.0109 20.3744 44.0177 18.1416 44.02C16.9611 44.0213 15.7847 44.0246 14.6063 44.0321C13.4961 44.0392 12.3941 44.0414 11.2777 44.0399C10.8684 44.0401 10.4611 44.0422 10.0518 44.0462C9.49563 44.0514 8.9395 44.0502 8.3813 44.0473C8.2188 44.0504 8.05671 44.0534 7.88925 44.0565C7.09536 44.0455 6.75011 43.997 6.16916 43.4296C5.30498 41.95 5.37321 40.5665 5.43316 38.9155C5.43688 38.7364 5.44063 38.5581 5.44447 38.3721C5.51476 37.1537 5.89103 36.4975 6.67458 35.5717C7.31135 35.2498 7.98326 35.3293 8.68204 35.3272L8.6635 35.3187ZM11.6199 36.1901C11.7564 36.3281 11.8928 36.466 12.0334 36.6081C12.1016 36.4702 12.1698 36.3322 12.2401 36.1901H11.6199ZM11.2064 36.3991C11.3429 36.537 11.4793 36.675 11.6199 36.8171V36.3991H11.2064ZM12.2401 36.3991V36.8171C12.513 36.7481 12.7859 36.6792 13.0671 36.6081C12.7942 36.5391 12.5213 36.4702 12.2401 36.3991Z" fill="white"/>
<path d="M84.9511 49.1118C86.0407 50.234 86.2329 51.3688 86.3942 52.8735C86.5193 52.8755 86.6443 52.8774 86.7725 52.8794C87.3431 52.8907 87.9158 52.9083 88.4864 52.9258C88.782 52.9303 88.782 52.9303 89.0818 52.9348C90.5145 52.985 91.3353 53.2546 92.369 54.3162C93.0513 55.2859 93.2993 56.0299 93.3614 57.2211C93.3756 57.4636 93.3897 57.706 93.4044 57.9568C93.4129 58.1407 93.4213 58.3246 93.43 58.5148C93.1116 58.5226 93.1116 58.5226 92.787 58.5306C92.0035 58.5502 91.2199 58.5712 90.4302 58.5925C90.0911 58.6015 89.7521 58.6103 89.411 58.6186C88.923 58.6306 88.4372 58.6439 87.9493 58.6575C87.7965 58.661 87.6433 58.6644 87.4862 58.668C86.775 58.6265 86.775 58.6265 86.1837 58.9335C86.1622 59.2908 86.155 59.6503 86.1537 60.0076C86.1524 60.2375 86.1511 60.4674 86.1498 60.7036C86.1495 60.9544 86.1493 61.2051 86.1491 61.4622C86.1484 61.7172 86.1477 61.9742 86.147 62.2375C86.1459 62.7809 86.1454 63.3243 86.1455 63.8676C86.1455 64.6973 86.1413 65.527 86.1373 66.3546C86.1367 66.8812 86.1363 67.4099 86.1361 67.9366C86.1346 68.1853 86.1332 68.4319 86.1316 68.6869C86.1357 70.1665 86.161 71.6545 87.0103 72.9293C87.9075 73.435 88.9061 73.5771 89.9253 73.6357C91.3002 73.7458 92.2822 74.3922 93.1918 75.4246C93.9196 76.4549 94.4406 77.272 94.2648 78.5803C92.7742 79.5834 90.7296 79.4873 88.9929 79.481C88.7955 79.4844 88.5981 79.4877 88.3954 79.4912C86.3074 79.4926 84.488 79.161 82.9168 77.7044C82.8031 77.602 82.6894 77.4996 82.5715 77.3951C80.6199 75.5894 79.9873 73.487 79.7805 70.8538C79.7537 69.8925 79.7563 68.9332 79.7603 67.9698C79.7606 67.6981 79.7609 67.4285 79.7612 67.1485C79.762 66.4337 79.764 65.719 79.7663 64.9959C79.7685 64.2645 79.7694 63.533 79.7704 62.8015C79.7726 61.3721 79.7761 59.9384 79.7805 58.5173C79.6538 58.5201 79.5262 58.5228 79.396 58.5256C79.2291 58.5277 79.0631 58.5298 78.8915 58.532C78.6434 58.5361 78.6434 58.5361 78.3912 58.5403C77.3678 58.4906 76.7001 57.9447 75.9723 57.2634C75.4307 56.6364 75.4307 56.6364 75.4307 56.0095H75.0172C75.006 55.5999 74.998 55.1903 74.9913 54.7806C74.9865 54.5529 74.9817 54.3251 74.9768 54.091C75.0171 53.5016 75.0171 53.5016 75.4316 53.0837C75.8761 53.0362 75.8761 53.0362 76.4219 53.0429C76.6165 53.0443 76.8106 53.0456 77.0111 53.047C77.2148 53.0505 77.4184 53.054 77.6272 53.0576C77.8325 53.0595 78.0386 53.0614 78.2495 53.0633C78.7581 53.0683 79.2646 53.0751 79.7732 53.0837C79.771 52.9466 79.7689 52.81 79.7667 52.6679C79.7581 52.0493 79.7527 51.4307 79.7474 50.81C79.7439 50.5947 79.7404 50.3774 79.7369 50.1558C79.7355 49.9498 79.7342 49.7441 79.7328 49.531C79.7307 49.3406 79.7285 49.1506 79.7263 48.9542C79.7732 48.4839 79.7732 48.4839 80.1873 48.066C82.1183 47.6961 83.4125 47.8027 84.9424 49.1067L84.9511 49.1118Z" fill="white"/>
<path d="M5.35565 45.768C5.71125 46.2298 5.96968 46.5872 6.15988 47.1452C6.685 47.7512 6.83386 47.7366 7.605 47.7993C8.05777 47.813 8.51053 47.8204 8.96329 47.8231C9.34163 47.8311 9.34163 47.8311 9.72617 47.8392C12.0623 47.8783 14.3985 47.8535 16.7347 47.8346C16.9249 47.8331 17.1151 47.8316 17.3115 47.83C17.8945 47.8253 18.4775 47.8204 19.0605 47.8154C19.2549 47.8137 19.4492 47.8121 19.6498 47.8104C20.6504 47.8015 21.649 47.7902 22.6475 47.7751C23.6337 47.7604 24.6178 47.7519 25.6039 47.7473C25.974 47.7445 26.3461 47.7394 26.7162 47.7319C29.9414 47.6686 29.9414 47.6686 30.8717 48.4278C31.1529 48.7413 31.1529 48.7413 31.3968 49.1133C31.5556 49.3453 31.5556 49.3453 31.7173 49.5814C32.0605 50.2418 32.0935 50.6431 32.0915 51.385C32.0927 51.7528 32.0927 51.7528 32.0941 52.129C32.0918 52.3965 32.0896 52.664 32.0873 52.9399C32.0871 53.2262 32.0872 53.5125 32.0876 53.7988C32.0877 54.5741 32.0841 55.3495 32.0798 56.1185C32.0759 56.9294 32.0755 57.7403 32.0748 58.5428C32.0729 60.0788 32.0678 61.6149 32.0616 63.1405C32.0546 64.8897 32.0512 66.6306 32.0481 68.386C32.0416 71.9806 32.0307 75.5752 32.0169 79.1698C31.56 79.1754 31.1031 79.1795 30.6462 79.1828C30.3919 79.1852 30.1376 79.1877 29.875 79.1902C28.9013 79.1638 27.9958 78.9971 27.0634 78.7513V78.3333C26.8297 78.2773 26.5941 78.2213 26.3522 78.1636C26.1082 78.0817 25.8663 77.9998 25.6162 77.9149C25.5479 77.708 25.4797 77.5011 25.4094 77.288H24.9959C24.6982 76.9431 24.6982 76.9431 24.3757 76.4646C24.2159 76.2347 24.2159 76.2347 24.0532 76.0027C23.2821 74.4583 23.2841 72.8052 23.2965 71.1124C23.2965 70.8784 23.2964 70.6422 23.2963 70.4019C23.2966 69.6328 23.2998 68.8616 23.3031 68.0821C23.3039 67.545 23.3044 67.01 23.3049 66.4729C23.3063 65.2086 23.3095 63.9442 23.3137 62.6903C23.3183 61.2504 23.3206 59.8063 23.3227 58.3642C23.327 55.3966 23.3342 52.4499 23.3435 49.4823C22.4297 49.2829 21.5511 49.2357 20.6145 49.2211C20.2755 49.2145 19.9364 49.2078 19.5974 49.201C19.421 49.1978 19.2439 49.1946 19.0619 49.1913C16.1055 49.1359 13.1905 49.0249 10.2341 48.7294C9.35747 48.6433 8.49743 48.63 7.60844 48.6454V48.2274H6.36799C6.19412 47.9286 6.02273 47.6277 5.85114 47.3267C5.70724 47.0759 5.70724 47.0759 5.55963 46.8189C5.33428 46.3466 5.33428 46.3466 5.33428 45.7196L5.35565 45.768ZM26.0298 48.9864C25.8446 49.0009 25.6597 49.0154 25.4695 49.0305C24.9465 49.0754 24.9465 49.0754 24.5702 49.5341C24.4935 49.9772 24.4935 49.9772 24.4854 50.5017C24.4776 50.7097 24.4697 50.9176 24.4615 51.1329C24.4552 51.3648 24.4489 51.5968 24.4424 51.8351C24.4347 52.0817 24.4269 52.3283 24.4189 52.5832C24.3248 55.9688 24.332 59.3753 24.3364 62.7609C24.3376 63.7264 24.3369 64.694 24.3356 65.6658C24.3349 66.4223 24.3351 67.1809 24.3357 67.9437C24.3358 68.299 24.3356 68.6564 24.3352 69.0117C24.0974 72.648 24.0974 72.648 25.036 75.9082C25.2237 76.0332 25.4123 76.159 25.6046 76.2865C25.7836 76.4114 25.9622 76.5373 26.1462 76.6647C26.6383 76.9594 26.6383 76.9594 27.2585 76.9134V48.9092C26.8471 48.9092 26.4398 48.9531 26.0304 48.9876L26.0298 48.9864Z" fill="white"/>
<path d="M57.041 24.0334C57.2139 24.0321 57.3863 24.0308 57.5641 24.0294C57.7518 24.0303 57.9404 24.0311 58.1326 24.032C58.3272 24.0316 58.5213 24.0312 58.7218 24.0308C59.1353 24.0305 59.5488 24.0313 59.9623 24.033C60.5866 24.0352 61.2089 24.0331 61.8333 24.0304C67.9115 24.0245 67.9115 24.0245 69.5034 25.3407C69.6884 25.4872 69.8735 25.6333 70.0637 25.7838C70.1943 25.9131 70.3242 26.0429 70.4585 26.1767V26.5946H70.872C71.9905 28.5925 72.3399 30.5863 71.9057 32.8642C71.3785 34.3731 70.6736 35.6855 69.2181 36.417C68.6041 36.5944 67.988 36.7263 67.3574 36.835C67.8681 37.8465 68.4056 38.557 69.2181 39.3428C69.8962 40.0387 70.4792 40.8099 71.0767 41.579C71.4861 42.1077 71.4861 42.1077 72.1145 42.4901V42.9081H72.528C72.5963 43.2529 72.6645 43.5978 72.7348 43.953C72.1063 43.9461 71.4778 43.9321 70.8493 43.9137C70.6723 43.9125 70.4958 43.9113 70.3138 43.9101C69.0713 43.8666 68.4532 43.6467 67.5642 42.7C67.2127 42.2653 66.8819 41.8348 66.5553 41.3813C65.8296 40.397 65.0791 39.5067 64.1984 38.6645C63.849 38.3134 63.849 38.3134 63.603 37.8536C63.2185 37.3876 63.2185 37.3876 62.406 37.3876C62.0855 37.3912 61.7651 37.3993 61.4446 37.4112C61.2815 37.4132 61.118 37.4153 60.9505 37.4173C60.1649 37.3618 60.1649 37.3618 59.5075 37.6848C59.4746 38.1321 59.4556 38.5814 59.4421 39.0307C59.4335 39.3045 59.4248 39.5762 59.4159 39.8583C59.4076 40.1488 59.3994 40.4393 59.3913 40.7298C59.3823 41.0203 59.3733 41.3128 59.3642 41.6033C59.3423 42.3181 59.321 43.0328 59.3007 43.7559C58.9348 43.7665 58.5688 43.7741 58.205 43.7804C58.0013 43.7849 57.7977 43.7894 57.5889 43.7941C56.8364 43.7427 56.487 43.4848 55.9949 42.9206C55.6662 42.256 55.7572 41.5413 55.7572 40.8098C55.7565 40.6351 55.7558 40.4608 55.7551 40.2811C55.7531 39.7022 55.7527 39.1233 55.7525 38.5444C55.7518 38.1431 55.7511 37.7419 55.7504 37.3406C55.7491 36.4984 55.7488 35.6562 55.7489 34.8119C55.7489 33.7314 55.7461 32.6593 55.7425 31.5726C55.7402 30.7429 55.7398 29.9153 55.7399 29.0857C55.7397 28.6865 55.7387 28.2894 55.7372 27.8903C55.7351 27.3344 55.7357 26.7784 55.737 26.2205C55.7358 26.0545 55.7347 25.8882 55.7335 25.7168C55.7401 24.5653 55.8346 24.0595 57.0359 24.0574L57.041 24.0334ZM59.3152 27.8579C59.2542 28.4639 59.2542 28.4639 59.2676 29.1724C59.268 29.4336 59.2684 29.6949 59.2688 29.9644C59.2714 30.2382 59.2739 30.5141 59.2765 30.7962C59.2766 31.0721 59.2768 31.3479 59.2769 31.6301C59.1636 32.8526 59.1636 32.8526 59.5229 33.908C60.8957 34.2006 62.2726 34.117 63.6578 34.0648C63.8955 34.0591 64.1333 34.0535 64.3772 34.0476C65.6528 34.0016 66.6721 33.9335 67.7885 33.2806C68.0035 32.848 68.0035 32.848 67.9952 32.4447H68.4087C68.5137 30.6746 68.4746 29.289 67.2819 27.9097C66.3144 27.0591 64.6977 27.381 63.4986 27.381C63.0293 27.3805 62.56 27.3767 62.0907 27.3727C61.793 27.3721 61.4953 27.3717 61.1996 27.3715C60.9288 27.3707 60.6579 27.3698 60.3788 27.3689C59.7131 27.3503 59.7131 27.3503 59.3203 27.837L59.3152 27.8579Z" fill="white"/>
<path d="M40.295 53.9185C40.4601 53.9116 40.6257 53.9048 40.7953 53.8977C41.6615 53.8897 42.2321 53.9359 42.9247 54.4995C44.4835 56.1296 44.5228 57.5717 44.5084 59.7242C44.5076 59.9478 44.5069 60.1714 44.5061 60.4013C44.49 63.8705 44.4393 67.3397 44.3932 70.8089C44.3805 71.7702 44.3682 72.7315 44.3558 73.6929C44.3316 75.5633 44.3072 77.4337 44.2824 79.3146C43.8524 79.3213 43.4203 79.3261 42.9903 79.3301C42.7505 79.333 42.5106 79.3359 42.2625 79.3388C40.8505 79.2876 39.9057 78.6366 38.9133 77.6419C38.0595 76.4235 37.9685 75.4893 37.9851 74.0264C37.9839 73.7087 37.9839 73.7087 37.9827 73.3848C37.9812 72.6889 37.9856 71.9929 37.9902 71.297C37.9907 70.8122 37.9909 70.3294 37.9908 69.8446C37.9914 68.831 37.9949 67.8195 38.0004 66.8143C38.0074 65.5144 38.009 64.2228 38.0087 62.9062C38.0088 61.9073 38.0111 60.9083 38.0141 59.9177C38.0154 59.437 38.0162 58.9585 38.0165 58.4778C38.0174 57.809 38.021 57.1403 38.0254 56.4715C38.0252 56.2722 38.0251 56.0724 38.0249 55.8676C38.0266 55.6862 38.0284 55.5039 38.0302 55.3179C38.0309 55.1599 38.0316 55.0024 38.0323 54.8393C38.1911 53.6836 39.4216 53.9491 40.3065 53.9428L40.295 53.9185Z" fill="white"/>
<path d="M114.722 24.0334C115.199 24.0693 115.199 24.0693 115.756 24.1901C115.939 24.2278 116.122 24.2656 116.312 24.3045C116.789 24.4514 116.789 24.4514 117.203 24.8687C117.478 25.7214 117.436 26.5824 117.432 27.4601C117.432 27.6376 117.432 27.8154 117.432 27.9972C117.432 28.5824 117.431 29.1697 117.429 29.7548C117.429 30.1603 117.428 30.5678 117.428 30.9732C117.427 32.0432 117.425 33.1049 117.423 34.1707C117.421 35.2616 117.42 36.3442 117.419 37.4518C117.417 39.5835 117.413 41.736 117.409 43.8677C116.199 43.9126 115.699 43.7569 114.721 43.0317C114.333 42.8489 114.333 42.8489 113.894 42.8227C113.429 43.0167 113.429 43.0167 112.976 43.3201C111.353 44.3421 109.338 44.2961 107.518 43.9074C107.305 43.8255 107.092 43.7435 106.873 43.6587C106.64 43.5812 106.404 43.5034 106.162 43.4246C104.733 42.7768 103.723 41.4852 103.082 40.0808C102.391 38.2021 102.391 35.4413 103.166 33.6023C103.228 33.4773 103.289 33.3515 103.352 33.224C103.431 33.0301 103.431 33.0301 103.512 32.8311C104.051 31.6712 104.976 31.1404 106.034 30.5114C106.222 30.3864 106.41 30.2606 106.603 30.1331C107.963 29.4079 109.704 29.5333 111.192 29.6754C111.949 29.9366 112.586 30.2919 113.26 30.7203C113.535 30.8614 113.81 31.0004 114.087 31.1383C114.091 30.9379 114.095 30.7371 114.099 30.5302C114.115 29.7883 114.133 29.0464 114.152 28.294C114.16 27.9722 114.167 27.6503 114.174 27.3285C114.183 26.8666 114.195 26.4048 114.208 25.9429C114.21 25.7987 114.212 25.6545 114.215 25.5061C114.246 24.4863 114.246 24.4863 114.707 24.0202L114.722 24.0334ZM106.866 34.0647C106.01 35.2434 105.776 36.3636 105.832 37.8265C106.084 38.9467 106.711 39.9373 107.651 40.5851C109.005 41.3187 110.36 41.3208 111.828 40.955C112.795 40.4221 113.417 39.653 113.895 38.6562C113.966 38.0898 114.003 37.5883 113.998 37.024C113.998 36.8754 113.997 36.7272 113.996 36.5747C113.949 35.0658 113.494 34.234 112.435 33.2309C110.663 32.2487 108.28 32.6666 106.874 34.0543L106.866 34.0647Z" fill="white"/>
<path d="M129.814 30.303C130.046 30.4739 130.046 30.4739 130.281 30.6478C130.707 30.9446 131.028 31.0595 131.532 31.1515C131.57 30.9575 131.57 30.9575 131.61 30.7586C131.739 30.3155 131.739 30.3155 132.151 29.8975C132.939 29.9653 133.346 30.0764 134.012 30.5245V30.9425H134.425C134.702 31.5026 134.657 31.931 134.655 32.5579C134.655 32.9341 134.655 32.9341 134.655 33.3187C134.654 33.5903 134.653 33.862 134.652 34.1441C134.651 34.4242 134.651 34.7042 134.651 34.9864C134.65 35.7241 134.648 36.4639 134.646 37.2016C134.643 37.9561 134.643 38.7084 134.641 39.4587C134.639 40.9383 134.636 42.4263 134.631 43.8892C133.062 43.9291 133.062 43.9291 132.316 43.2497C131.936 42.8861 131.936 42.8861 131.528 42.6353C130.72 42.712 130.286 43.1765 129.668 43.6802C128.688 44.2131 127.704 44.1755 126.608 44.1776C126.431 44.1827 126.254 44.1878 126.072 44.1931C124.189 44.2017 122.702 43.5285 121.338 42.2224C119.717 40.3749 119.641 38.2307 119.765 35.8483C119.962 34.0865 120.492 32.6299 121.778 31.3969C123.908 29.6853 127.34 28.7636 129.8 30.3059L129.814 30.303ZM124.914 33.2497C124.735 33.3575 124.557 33.4649 124.373 33.5757C123.411 34.5726 123.012 35.8537 122.95 37.233C123.015 38.5015 123.316 39.5945 124.24 40.4932C125.607 41.4211 127.259 41.4064 128.851 41.1891C129.56 40.8463 130.052 40.4472 130.556 39.8432C130.66 39.7228 130.763 39.6029 130.87 39.4775C131.584 38.4158 131.42 36.9905 131.331 35.7575C131.088 34.6833 130.515 33.9414 129.678 33.2497C128.133 32.3615 126.432 32.2549 124.923 33.2497H124.914Z" fill="white"/>
<path d="M81.6433 29.6761C81.8748 29.6866 81.8748 29.6866 82.1105 29.6974C83.7934 29.8182 85.0876 30.2763 86.2453 31.5385C87.8062 33.5532 87.5974 35.3839 87.5974 38.0171H77.0536C77.4795 39.8332 77.4795 39.8332 78.3974 40.5459C79.8425 41.2501 81.8914 41.2 83.4626 40.9513C83.6673 40.8134 83.8719 40.6754 84.0828 40.5333C84.7919 40.4251 85.2922 40.3743 85.9063 40.7841C86.5368 41.3714 86.5368 41.3714 86.7705 41.7872C86.7559 42.2136 86.7559 42.2136 86.5637 42.6232C85.4101 43.4905 84.0621 43.8123 82.677 44.0109C82.2366 44.0403 82.2366 44.0403 82.0257 44.2951C79.8549 44.485 77.6015 43.9816 75.8442 42.6232C75.2322 42.1007 74.8952 41.7663 74.7856 40.9513H74.3722C73.4997 38.7151 73.1793 36.1446 73.9587 33.8458C74.8291 31.9858 75.9248 30.8363 77.8041 30.0631C79.0962 29.6577 80.3263 29.62 81.6495 29.6827L81.6433 29.6761ZM77.6738 33.8349C77.5374 34.0418 77.4009 34.2487 77.2603 34.4618C77.3286 34.8067 77.3968 35.1515 77.4671 35.5068H84.703C84.3433 33.8265 84.3433 33.8265 83.2558 32.79C81.1884 31.8098 79.4105 32.5245 77.6738 33.8349Z" fill="white"/>
<path d="M143.045 29.6761C146.188 29.6 146.188 29.6 147.18 30.3971C147.457 30.721 147.457 30.721 147.871 31.373C147.96 31.511 148.05 31.6489 148.142 31.791C148.334 32.3574 148.311 32.8694 148.284 33.4629C146.682 33.3062 146.682 33.3062 146.216 32.836C145.7 32.7248 145.203 32.6397 144.678 32.5747C144.531 32.5559 144.383 32.5371 144.232 32.5177C142.977 32.3808 141.854 32.4964 140.634 32.8353C140.439 33.41 140.439 33.41 140.428 34.0892C140.839 34.6556 141.18 35.0569 141.869 35.247C142.34 35.3089 142.807 35.3448 143.283 35.3695C144.794 35.4644 146.177 35.5952 147.356 36.6297C147.488 36.7912 147.62 36.9536 147.757 37.1187C147.893 37.2803 148.03 37.4426 148.17 37.6077C148.923 38.6548 148.869 39.9484 148.701 41.2023C148.377 41.8564 147.97 42.3559 147.461 42.8742C147.323 43.0291 147.323 43.0291 147.182 43.1877C146.03 44.2472 144.288 44.2263 142.82 44.2075C142.638 44.21 142.458 44.2124 142.27 44.2149C140.523 44.2071 138.672 43.8805 137.329 42.6663C136.969 41.8471 136.882 41.381 137.043 40.4928C137.329 39.9453 137.329 39.9453 137.682 39.7677C138.377 39.7196 138.788 40.0038 139.396 40.3361C140.655 41.0216 141.484 41.2327 142.911 41.2515C143.289 41.2596 143.289 41.2596 143.674 41.2678C144.399 41.1951 144.693 41.1098 145.185 40.5719C145.272 39.6001 145.272 39.6001 144.978 38.691C144.563 38.5528 144.563 38.5528 144.06 38.4695C143.873 38.4341 143.686 38.3988 143.492 38.3625C142.952 38.2799 142.421 38.2327 141.875 38.1951C140.283 38.0461 138.774 37.4573 137.595 36.3434C136.985 35.5367 136.878 34.6527 136.923 33.6684C137.134 32.4354 137.841 31.5576 138.765 30.7635C140.12 29.8983 141.474 29.7645 143.045 29.6935L143.045 29.6761Z" fill="white"/>
<path d="M90.9466 29.885C91.7632 29.9402 92.1147 30.065 92.7556 30.5642C93.2332 31.2894 93.2187 31.559 93.2166 32.4138C93.2166 32.79 93.2166 32.79 93.2165 33.1745C93.2144 33.4462 93.2123 33.7158 93.2101 33.9958C93.2093 34.2758 93.2087 34.5559 93.2083 34.8359C93.2067 35.5737 93.2026 36.3093 93.1981 37.0512C93.1938 37.8035 93.192 38.5559 93.1899 39.3082C93.1854 40.7837 93.1784 42.255 93.1697 43.7388C92.1856 43.8382 91.4889 43.8236 90.5854 43.3939C89.9983 42.8067 89.9755 42.2403 89.93 41.4274C89.9288 40.9028 89.9345 40.3803 89.9457 39.8558C89.9475 39.5757 89.9488 39.2978 89.9495 39.0177C89.9531 38.2842 89.9643 37.5528 89.9768 36.8234C89.9859 36.2236 89.9895 35.6238 89.9928 35.024C89.9998 33.7868 90.011 32.558 90.0309 31.3041C90.0341 31.0846 90.0374 30.8652 90.0408 30.6395C90.0923 29.8746 90.1717 29.9456 90.9525 29.885L90.9466 29.885Z" fill="white"/>
<path d="M40.2949 46.1859C40.5575 46.1756 40.5575 46.1756 40.8263 46.1651C41.7194 46.1574 42.3272 46.1894 43.0384 46.7712C44.2478 48.0585 44.4174 49.0909 44.3967 50.8255C44.3958 50.9712 44.3948 51.116 44.3939 51.2665C44.3914 51.6238 44.3877 51.9812 44.3838 52.3407C43.133 52.7628 41.6755 52.6521 40.4557 52.1317C39.3724 51.3438 38.3469 50.5434 37.9748 49.2059C37.9198 48.5706 37.9198 48.5706 37.9231 47.9123C37.922 47.6928 37.921 47.4755 37.9199 47.2498C38.0532 45.9081 39.2575 46.1944 40.2974 46.1881L40.2949 46.1859Z" fill="#FFDE00"/>
<path d="M92.1871 24.8694C92.7577 25.2664 93.1153 25.7074 93.4275 26.3323C93.5245 26.9321 93.4914 27.3918 93.4275 28.0042C93.0926 28.0098 92.7556 28.0139 92.4186 28.0172C92.2315 28.0197 92.0444 28.0221 91.8521 28.0246C91.3601 28.0042 91.3601 28.0042 90.9466 27.7947V27.3767H90.5331C90.2396 26.5784 90.07 25.9326 90.1197 25.0779C90.7978 24.7351 91.4593 24.7059 92.1871 24.8689V24.8694Z" fill="#FFDE00"/>
<path d="M24.5826 55.1724H24.7894V72.3093H24.5826V55.1724Z" fill="white"/>
<path d="M17.3466 35.5277C18.1778 35.5216 19.0089 35.5179 19.8482 35.5146C20.1997 35.512 20.1997 35.512 20.5594 35.5093C21.7192 35.5059 22.8336 35.5239 23.9706 35.7371V35.9461C22.5855 36.1128 21.221 36.1822 19.8358 36.1551V35.7371H17.3549V35.5281L17.3466 35.5277Z" fill="white"/>
<path d="M123.819 72.5183H124.025V78.7879H123.819V72.5183Z" fill="white"/>
<path d="M123.819 56.2173H124.025V62.069H123.819V56.2173Z" fill="white"/>
<path d="M18.7938 49.3207H22.3084V49.5297H18.7938V49.3207Z" fill="white"/>
<path d="M89.9129 30.303H90.1196V33.0199H89.9129V30.303Z" fill="white"/>
<path d="M26.65 32.3929H27.2702C27.4067 32.6688 27.5431 32.9446 27.6837 33.2288C27.2827 33.1636 27.2827 33.1636 26.8568 33.0199C26.7885 32.813 26.7203 32.6061 26.65 32.3929Z" fill="white"/>
<path d="M26.4433 49.3207H26.8568V51.4106H26.65C26.5818 50.7209 26.5136 50.0313 26.4433 49.3207Z" fill="white"/>
<path d="M26.4433 30.512H27.0635C27.1317 30.7878 27.1999 31.0637 27.2702 31.3479C26.9973 31.21 26.7244 31.072 26.4433 30.9299V30.512Z" fill="white"/>
<path d="M15.0725 35.5277H17.1399V35.7367H15.0725V35.5277Z" fill="white"/>
<path d="M10.1107 33.0198C10.5242 33.6468 10.5242 33.6468 10.5242 34.0648C10.3195 33.9958 10.1148 33.9268 9.90395 33.8558C9.97217 33.5799 10.0404 33.3041 10.1107 33.0198Z" fill="white"/>
<path d="M142.632 29.467H144.493V29.676H142.632V29.467Z" fill="white"/>
<path d="M87.8455 36.3636H88.0522V38.0355H87.8455V36.3636Z" fill="white"/>
<path d="M80.6096 29.467H82.2635V29.676H80.6096V29.467Z" fill="white"/>
<path d="M24.1691 35.7366C24.442 35.8056 24.7149 35.8746 24.9961 35.9456C24.7232 36.0146 24.4503 36.0836 24.1691 36.1546V35.7366Z" fill="white"/>
<path d="M51.8725 12.9571C51.9407 13.164 52.0089 13.3709 52.0792 13.5841C51.9428 13.791 51.8063 13.9979 51.6658 14.211C51.734 13.7972 51.8022 13.3835 51.8725 12.9571Z" fill="white"/>
<path d="M24.9961 49.3207H26.2365V49.5297H24.9961V49.3207Z" fill="white"/>
<path d="M35.7466 33.0198H36.7803V33.2288H35.7466V33.0198Z" fill="white"/>
<path d="M53.5264 8.15046C53.5947 8.35736 53.6629 8.56425 53.7332 8.77742C53.5285 8.70845 53.3238 8.63949 53.1129 8.56843H53.5264V8.15046Z" fill="white"/>
<path d="M29.3377 30.93C29.5423 30.9989 29.747 31.0679 29.9579 31.1389H29.3377V30.93Z" fill="white"/>
<path d="M43.8096 52.4555C44.4298 52.6645 44.4298 52.6645 44.4298 52.6645L43.8096 52.4555Z" fill="white"/>
<path d="M10.9377 48.9028C11.5579 49.1118 11.5579 49.1118 11.5579 49.1118L10.9377 48.9028Z" fill="white"/>
<path d="M8.66351 48.6938C9.28374 48.9028 9.28374 48.9028 9.28374 48.9028L8.66351 48.6938Z" fill="white"/>
<path d="M82.2635 44.0961C82.8837 44.3051 82.8837 44.3051 82.8837 44.3051L82.2635 44.0961Z" fill="white"/>
<path d="M72.9601 43.6781L73.3736 44.0961H72.9601V43.6781Z" fill="white"/>
<path d="M147.594 33.6468C148.214 33.8557 148.214 33.8557 148.214 33.8557L147.594 33.6468Z" fill="white"/>
<path d="M18.7938 32.3929C19.4141 32.6019 19.4141 32.6019 19.4141 32.6019L18.7938 32.3929Z" fill="white"/>
<path d="M12.7983 32.3929L13.0051 32.8109C12.8686 32.7419 12.7322 32.6729 12.5916 32.6019C12.6598 32.5329 12.728 32.464 12.7983 32.3929Z" fill="white"/>
<path d="M5.35564 25.2873C5.97586 25.4963 5.97586 25.4963 5.97586 25.4963L5.35564 25.2873Z" fill="white"/>
<path d="M51.2523 3.76173C51.3205 3.89967 51.3887 4.0376 51.459 4.17971C51.3226 4.11074 51.1861 4.04178 51.0455 3.97072C51.1138 3.90175 51.182 3.83279 51.2523 3.76173Z" fill="white"/>
</svg>
